<svg width="167" height="32" viewBox="0 0 167 32" fill="none" xmlns="http://www.w3.org/2000/svg">
<g clip-path="url(#clip0_254_45832)">
<path d="M16.8131 30.2812C15.3529 31.3861 13.5416 32 11.2806 32C8.44658 32 6.2841 31.0731 4.99648 29.0474C4.20172 27.8565 3.88752 26.4447 3.88752 24.198V12.0744H0V8.32994H3.89368V2.11778H8.80391V8.32994H15.969V12.0744H8.80391V24.2409C8.80391 26.5797 9.91287 27.6785 11.946 27.6785C13.2274 27.6785 14.2008 27.1936 14.8662 26.6656L16.8131 30.2812Z" fill="#303B51"/>
<path d="M20.6636 4.58546V0H25.5307V4.58546H20.6636ZM20.6636 31.4721V8.32994H25.5307V31.4721H20.6636Z" fill="#303B51"/>
<path d="M36.8547 -4.57764e-05V11.7245C38.9802 8.94989 41.6787 7.80199 44.7283 7.80199C51.3204 7.80199 55.3435 13.0504 55.3435 19.8826C55.3435 26.7147 51.2712 32.0061 44.7283 32.0061C41.6725 32.0061 38.9802 30.8582 36.8547 28.0836V31.4782H31.9876V-4.57764e-05H36.8547ZM43.6255 27.6355C48.049 27.6355 50.1745 24.1979 50.1745 19.9194C50.1745 15.6409 48.049 12.1603 43.6255 12.1603C39.202 12.1603 36.8547 15.6838 36.8547 19.9194C36.8547 24.155 39.202 27.6355 43.6255 27.6355Z" fill="#303B51"/>
<path d="M60.3028 31.4721V2.11778H82.7777V8.42202H67.3385V13.4003H80.7878V18.9987H67.3385V25.2108H83.2213V31.4721H60.3028Z" fill="#E31E26"/>
<path d="M106.09 31.4721L100.78 21.2883H95.2965V31.4721H88.2177V2.11778H102.067C109.368 2.11778 113.126 5.99731 113.126 11.4606C113.126 15.8251 110.385 18.6426 107.643 19.9256L113.97 31.4721H106.097H106.09ZM101.932 8.42202H95.2965V15.6961H101.932C104.23 15.6961 105.955 14.3273 105.955 12.0376C105.955 9.74794 104.187 8.42202 101.932 8.42202Z" fill="#E31E26"/>
<path d="M123.168 -4.57764e-05V11.7245C125.294 8.94989 127.992 7.80199 131.042 7.80199C137.634 7.80199 141.657 13.0504 141.657 19.8826C141.657 26.7147 137.585 32.0061 131.042 32.0061C127.986 32.0061 125.294 30.8582 123.168 28.0836V31.4782H118.301V-4.57764e-05H123.168ZM129.939 27.6355C134.363 27.6355 136.488 24.1979 136.488 19.9194C136.488 15.6409 134.363 12.1603 129.939 12.1603C125.516 12.1603 123.168 15.6838 123.168 19.9194C123.168 24.155 125.516 27.6355 129.939 27.6355Z" fill="#303B51"/>
<path d="M166.886 8.33V31.4721H162.019V28.1205C160.115 30.5882 157.552 32.0001 154.41 32.0001C149.322 32.0001 146.401 28.6055 146.401 23.4062V8.33H151.268V22.3012C151.268 24.7689 152.02 27.5435 155.871 27.5435C159.321 27.5435 162.019 25.1188 162.019 21.2822V8.33H166.886Z" fill="#303B51"/>
</g>
<defs>
<clipPath id="clip0_254_45832">
<rect width="166.886" height="32" fill="white"/>
</clipPath>
</defs>
</svg>
